<?xml version="1.0" standalone="no"?>
<!DOCTYPE svg PUBLIC "-//W3C//DTD SVG 20010904//EN"
 "http://www.w3.org/TR/2001/REC-SVG-20010904/DTD/svg10.dtd">
<svg version="1.0" xmlns="http://www.w3.org/2000/svg"
 width="712.000000pt" height="712.000000pt" viewBox="0 0 712.000000 712.000000"
 preserveAspectRatio="xMidYMid meet">
<metadata>
Created by potrace 1.11, written by Peter Selinger 2001-2013
</metadata>
<g transform="translate(0.000000,712.000000) scale(0.100000,-0.100000)"
fill="#000000" stroke="none">
<path d="M698 7092 c0 -15 -2 -36 -3 -47 -1 -11 -3 -41 -4 -67 l-1 -46 -222 0
c-123 0 -244 -1 -270 -1 l-48 -1 0 -3089 0 -3088 415 0 c228 0 418 -3 421 -6
3 -3 6 -170 6 -371 l-1 -366 70 0 69 0 -1 148 c0 81 0 161 0 178 l1 32 58 0
c106 0 179 48 202 132 14 51 6 164 -14 213 -13 28 -13 37 -4 38 56 4 421 0
425 -5 3 -3 0 -32 -6 -63 -7 -32 -14 -69 -17 -83 -2 -14 -7 -36 -9 -50 -3 -14
-8 -38 -10 -55 -3 -16 -10 -52 -15 -80 -6 -27 -12 -61 -15 -75 -3 -14 -7 -36
-10 -50 -3 -14 -8 -43 -11 -65 -3 -22 -8 -44 -11 -48 -2 -4 -6 -24 -9 -45 -4
-38 -11 -74 -20 -104 -5 -16 2 -18 60 -18 l65 0 6 33 c3 17 7 41 9 52 2 11 6
38 10 60 l8 40 64 1 c35 1 64 -1 65 -5 0 -3 3 -15 5 -26 3 -11 7 -33 9 -50 2
-16 7 -47 11 -68 l6 -37 65 0 c57 0 64 2 59 18 -3 9 -8 33 -11 52 -3 19 -7 42
-9 50 -1 8 -7 38 -11 65 -5 28 -10 52 -10 55 -2 8 -16 73 -19 90 -2 8 -6 33
-10 55 -4 22 -11 60 -16 85 -6 25 -12 57 -14 73 -3 15 -7 35 -10 45 -3 9 -8
33 -10 52 -3 19 -8 50 -12 68 -5 27 -4 32 12 33 24 1 380 1 415 0 l26 -1 -1
-361 c0 -198 2 -365 5 -370 3 -6 35 -9 70 -7 l64 3 0 175 c0 158 1 176 17 182
10 4 24 5 31 2 11 -4 35 -82 62 -199 2 -11 9 -40 16 -65 15 -60 17 -73 18 -87
1 -14 126 -19 135 -5 2 4 -9 57 -26 117 -17 61 -31 117 -32 125 -3 15 -8 37
-28 102 -10 35 -9 38 21 63 60 51 78 212 32 290 l-20 35 27 1 c34 1 452 1 470
0 8 -1 10 -9 7 -23 -6 -26 -14 -69 -21 -113 -3 -16 -7 -39 -9 -50 -19 -87 -25
-122 -31 -163 -3 -26 -8 -50 -11 -55 -4 -7 -7 -22 -17 -87 -3 -19 -12 -69 -21
-110 -9 -41 -18 -90 -21 -107 l-5 -33 64 0 64 0 13 76 c7 43 13 83 13 90 0 16
-2 16 64 18 75 4 73 6 87 -99 12 -87 10 -85 82 -85 36 0 63 4 60 8 -3 5 -8 23
-11 40 -3 18 -7 44 -10 60 -2 15 -9 52 -15 82 -6 30 -13 66 -16 80 -3 14 -19
97 -36 185 -17 88 -32 169 -33 180 -2 11 -8 39 -13 62 -9 40 -8 43 12 44 100
5 409 -11 419 -21 5 -4 9 -168 8 -365 l0 -357 137 4 c155 4 192 16 231 74 38
55 47 122 46 334 -2 177 -6 232 -21 282 -4 13 0 16 18 13 30 -5 256 -18 286
-16 l22 1 0 -345 0 -345 68 0 67 0 0 337 1 338 94 -2 c52 -2 113 -5 135 -7 22
-2 47 -5 55 -5 12 -1 15 -13 14 -53 -3 -85 19 -123 133 -235 56 -56 108 -114
114 -130 26 -64 14 -127 -27 -137 -58 -15 -100 38 -103 133 -1 20 -4 22 -28
16 -54 -14 -68 -17 -81 -17 -18 -2 -5 -102 19 -145 43 -76 87 -101 179 -99 51
1 73 6 102 26 66 45 94 123 77 215 -15 78 -40 116 -142 215 -68 67 -102 108
-112 135 -19 56 -8 69 59 69 60 1 61 0 70 -60 3 -15 11 -19 40 -17 48 3 76 19
76 44 0 22 -1 22 289 5 l34 -2 2 -234 c1 -223 2 -238 24 -287 34 -76 95 -113
187 -113 104 0 174 49 201 140 12 42 16 103 17 263 l1 208 120 -7 c66 -4 144
-7 174 -8 l54 -1 3 74 c2 40 5 76 8 79 3 2 100 5 216 4 l210 0 -2 3090 -3
3090 -1550 3 c-852 2 -1577 5 -1610 8 -33 4 -112 9 -175 12 -63 3 -144 7 -180
10 -36 2 -114 6 -175 10 -60 3 -144 7 -185 10 -41 2 -127 6 -190 10 -63 3
-144 7 -180 10 -36 2 -117 6 -180 10 -63 4 -140 8 -170 10 -48 3 -193 11 -380
20 -30 2 -109 6 -175 10 -66 4 -149 8 -185 10 -91 5 -249 14 -350 20 -88 5
-210 11 -390 20 -58 3 -126 8 -152 10 -46 3 -48 2 -50 -23z m554 -6414 c24
-32 25 -144 0 -175 -21 -28 -56 -40 -93 -35 -28 4 -29 6 -30 66 0 33 -1 85 -2
114 -1 28 3 54 8 56 6 2 30 3 54 1 32 -2 50 -10 63 -27z m1424 8 c24 -20 28
-31 30 -86 3 -92 -37 -140 -111 -132 l-31 3 2 112 c1 62 2 115 3 120 0 4 19 7
40 7 27 0 49 -7 67 -24z m1473 4 c12 -8 26 -31 30 -50 13 -58 7 -462 -8 -488
-14 -26 -49 -42 -92 -42 -23 0 -29 4 -29 23 -1 55 -2 544 -1 558 1 21 68 20
100 -1z m1897 -74 c7 -3 10 -77 9 -222 -1 -259 -6 -277 -71 -282 -31 -2 -45 2
-60 19 -17 19 -19 40 -22 246 -2 124 -1 231 2 238 3 9 22 12 68 9 35 -3 68 -6
74 -8z m-4141 -122 c4 -38 9 -72 11 -75 1 -3 6 -28 9 -55 4 -27 8 -53 9 -59 0
-5 -20 -11 -46 -13 -47 -3 -55 2 -48 33 6 28 8 44 14 90 4 28 9 64 13 80 7 30
9 43 12 88 l2 22 9 -21 c5 -12 12 -53 15 -90z m1488 56 c3 -25 7 -55 10 -66 7
-29 15 -79 22 -141 l6 -53 -51 0 c-44 0 -51 2 -47 18 5 15 10 49 22 137 11 75
16 113 20 130 2 11 4 22 4 24 3 14 10 -11 14 -49z"/>
</g>
</svg>
