<svg xmlns="http://www.w3.org/2000/svg" width="41.5" height="40" viewBox="0 0 41.5 40">
  <g id="Group_9" data-name="Group 9" transform="translate(-1654 -630)">
    <g id="right-arrow_1_" data-name="right-arrow (1)" transform="translate(1552.522 630)">
      <g id="Group_8" data-name="Group 8" transform="translate(101.478)">
        <path id="Path_3" data-name="Path 3" d="M124.34,18.439l-17.8-17.8a2.193,2.193,0,0,0-3.095,0L102.134,1.95a2.191,2.191,0,0,0,0,3.095l14.948,14.948L102.117,34.956a2.193,2.193,0,0,0,0,3.095l1.311,1.31a2.193,2.193,0,0,0,3.095,0L124.34,21.545a2.208,2.208,0,0,0,0-3.105Z" transform="translate(-101.478)" fill="#fff"/>
      </g>
    </g>
    <g id="right-arrow_1_2" data-name="right-arrow (1)" transform="translate(1570.522 630)">
      <g id="Group_8-2" data-name="Group 8" transform="translate(101.478)">
        <path id="Path_3-2" data-name="Path 3" d="M124.34,18.439l-17.8-17.8a2.193,2.193,0,0,0-3.095,0L102.134,1.95a2.191,2.191,0,0,0,0,3.095l14.948,14.948L102.117,34.956a2.193,2.193,0,0,0,0,3.095l1.311,1.31a2.193,2.193,0,0,0,3.095,0L124.34,21.545a2.208,2.208,0,0,0,0-3.105Z" transform="translate(-101.478)" fill="#fff"/>
      </g>
    </g>
  </g>
</svg>
