<svg xmlns="http://www.w3.org/2000/svg" width="61.443" height="60" viewBox="0 0 61.443 60">
  <path id="Path_2" data-name="Path 2" d="M57.812-114.389l-9.7,2.928c-.116-.1-.247-.177-.277.083l-.015.059a1.541,1.541,0,0,0-.565-.058h0c-.091,0-.2-.1-.308-.065a.551.551,0,0,1-.214-.067c-.037-.016-.079-.035-.122.006-.057.061-.076.045-.1-.044a.087.087,0,0,0-.086-.049.809.809,0,0,0-.485-.273c-.14-.027-.21.012-.165.16l-.219-.008c.007-.119-.023-.18-.169-.185-.188-.007-.427-.114-.627-.055.023,0-.01,0-.01,0v0s.031-.006.01-.005c-.1-.056-.168-.013-.273-.012-.066-.069-.122-.068-.206-.008-.157-.015-.351-.132-.526-.062,0,0-.055,0-.055,0h0l.063,0a3.725,3.725,0,0,0-1.023-.122c-.118.018-.206-.1-.335-.013-.061-.01-.121.01-.165-.049a.151.151,0,0,0-.137-.085c-.5,0-.97-.187-1.484-.152-.36.026-.713-.037-1.079,0-.11.013-.259.156-.332-.042-.234.127-.376-.1-.567-.1-.387,0-.75-.095-1.132-.1a2.553,2.553,0,0,0-.882.092c-.056.02-.059.02-.118-.106-.084.045-.045.129-.068.187-.146,0-.3-.007-.442-.013-.091,0-.2.012-.192-.13a.087.087,0,0,0-.109-.078,4.046,4.046,0,0,1-1.049.03l-.09,0c-.059-.049-.11-.136-.215-.051a.1.1,0,0,1-.094.039c-.088.012-.179.021-.27.035a3.542,3.542,0,0,0-.953.03c-.085.017-.065.057-.078.1-.054.061-.118.036-.181.038,0-.212-.134-.144-.256-.1-.165-.083-.262.122-.411.113-.174-.168-.4-.063-.611-.063-.06,0-.119,0-.178,0-.216.032-.433,0-.649.036a.3.3,0,0,0-.109.018c-.379-.027-.761.091-1.139.051-.048,0-.105.047-.158.071a4.461,4.461,0,0,0-.832.008c-.047.012-.14,0-.118-.049.085-.19-.079-.126-.143-.123a7.292,7.292,0,0,0-1.329.077,9.6,9.6,0,0,0-1.437.02.683.683,0,0,1-.387-.061.237.237,0,0,0-.3.043c0-.054-.031-.111.017-.167.117.018.226-.071.345-.045a.046.046,0,0,0,.056-.05c0-.031-.019-.058-.055-.043-.155.059-.408-.041-.56.048-.045,0-.224,0-.224,0v0s.062,0,.048,0c-.076,0-.11-.034-.18.035-.031.012-.038.026-.069.038l-.034,0a1.488,1.488,0,0,0-.494.071,13.624,13.624,0,0,0-1.571.281c-.055-.011-.109-.019-.162-.034s-.046-.134-.141-.066c-.073.051,0,.115-.013.173l-.181.035a.082.082,0,0,1-.082-.045.327.327,0,0,0-.253.05.143.143,0,0,1-.124.014c-.261-.164-.58-.038-.858-.11-.015-.023-.03-.044-.045-.065-.111.085-.281.041-.365.177,0,.029-.006.057-.01.087a.5.5,0,0,1-.011.056.616.616,0,0,1-.192,0c-.012-.213-.185-.15-.348-.106-.225-.089-.35.114-.551.1-.241-.175-.547-.077-.827-.084l-.24-.01c-.29.025-.584-.01-.874.014a.5.5,0,0,0-.147.014c-.513-.04-1.023.066-1.536.012a.679.679,0,0,0-.212.066,8.1,8.1,0,0,0-1.123-.02c-.064.01-.189,0-.161-.053.108-.188-.111-.129-.2-.127a13,13,0,0,0-1.791.032,17.311,17.311,0,0,0-1.939-.028,1.235,1.235,0,0,1-.525-.074.4.4,0,0,0-.4.033c0-.054-.046-.113.017-.167.158.022.3-.065.464-.034.042.008.076-.015.073-.049s-.027-.059-.076-.045c-.206.054-.326-.052-.528.032a.313.313,0,0,1-.077-.007v0s-.141,0-.161,0c-.1,0-.262-.039-.355.027-.042.011-.107.024-.149.035l-.073,0a2.738,2.738,0,0,0-.678.054c-.711.052-1.421.114-2.119.228l-.028,0q-.02,1.832-.038,3.669A.443.443,0,0,0,5-108.567c.077.146.261.116.419.128a7.333,7.333,0,0,1,1.243.149l.295.017a1.205,1.205,0,0,1-.615.14c-.106-.069-.243.009-.358-.036-.014-.006-.058.014-.077.028-.254.2-.266.2-.707.177a.609.609,0,0,0-.251.023c-.016,1.615-.035,3.227-.049,4.847a1.9,1.9,0,0,1-.018.271,32.952,32.952,0,0,1-.32,7.017c.076,2.79.159,5.574.256,8.541.266,8.171.536,15.614.537,23.688a5.29,5.29,0,0,1-.249,2.194c-.155.13-.3-.649-.316-1.726q-.1-3.557-.207-7.1-.495.843-1,1.641c0,.2.007.407.011.611a1.568,1.568,0,0,1-.035.493c-.03.074-.06-.037-.071-.244s-.022-.439-.034-.658q-.677,1.047-1.376,2,0,2.915-.012,5.838c0,.232-.025.423-.059.427s-.06-.175-.058-.384q.02-2.868.015-5.727A27.917,27.917,0,0,1,0-63.843l.744,9.454L18.9-59.872c.368.005.735.009,1.1.019a3.566,3.566,0,0,0,1.064.029,1.253,1.253,0,0,0,.145-.05,11.015,11.015,0,0,0,1.816.067c1.571.062,3.135.117,4.7.179.123.093.084.369.22.538-.065-.474.238-.259.283-.528.04-.014.08-.047.123-.04l3.146.138c.206.162.433.077.646.069.469-.01.933,0,1.4,0h0c.344,0,.686.188,1.032.186,1.312.006,2.611.227,3.92.2,2.4-.03,4.79.228,7.2-.346a1.108,1.108,0,0,0,1.023-.86c.114-.323.229-.645.344-.975.129-.073.17-.211.126-.414a.6.6,0,0,1,.025-.375,3.406,3.406,0,0,0,.326-1.616h0c.131,0,.113-.369.117-.612a.751.751,0,0,0-.139-.506c-.071-.158-.142-.3-.215-.451-.021-.021-.044-.011-.068,0a.112.112,0,0,0,0-.013c-.121-.275-.242-.547-.363-.821a2.719,2.719,0,0,0-.958-1.889.284.284,0,0,0-.026-.084l3.639-1.1.054-.008a1.476,1.476,0,0,0,.241-.081l.219-.066a.373.373,0,0,1,.351.1,2.166,2.166,0,0,0,.528-.29l10.513,1.184Z" transform="translate(0 114.389)" fill="#e1393c"/>
</svg>
