<svg xmlns="http://www.w3.org/2000/svg" width="29.086" height="29.084" viewBox="0 0 29.086 29.084">
  <g id="cancel" transform="translate(0 -0.016)" opacity="0.3">
    <g id="Group_22" data-name="Group 22" transform="translate(0 0.016)">
      <path id="Path_196" data-name="Path 196" d="M17.746,14.558,28.621,3.683a1.594,1.594,0,0,0,0-2.25L27.668.48a1.595,1.595,0,0,0-2.25,0L14.543,11.355,3.668.48a1.594,1.594,0,0,0-2.249,0l-.953.953a1.592,1.592,0,0,0,0,2.25L11.34,14.558.465,25.433a1.6,1.6,0,0,0,0,2.25l.953.953a1.594,1.594,0,0,0,2.249,0L14.543,17.761,25.418,28.636a1.578,1.578,0,0,0,1.125.464h0a1.578,1.578,0,0,0,1.125-.464l.953-.953a1.6,1.6,0,0,0,0-2.25Z" transform="translate(0 -0.016)"/>
    </g>
  </g>
</svg>
