<?xml version="1.0" encoding="UTF-8" standalone="no"?>
<!DOCTYPE svg PUBLIC "-//W3C//DTD SVG 1.1//EN" "http://www.w3.org/Graphics/SVG/1.1/DTD/svg11.dtd">
<svg width="100%" height="100%" viewBox="0 0 1062 1063" version="1.1" xmlns="http://www.w3.org/2000/svg" xmlns:xlink="http://www.w3.org/1999/xlink" xml:space="preserve" xmlns:serif="http://www.serif.com/" style="fill-rule:evenodd;clip-rule:evenodd;stroke-linejoin:round;stroke-miterlimit:2;">
    <g transform="matrix(1,0,0,1,-5000,-1579.96)">
        <g id="owca-Qr" serif:id="owca Qr" transform="matrix(5.55556,0,0,5.55556,5000,1579.96)">
            <rect x="0" y="0" width="191.062" height="191.185" style="fill:none;"/>
            <g id="Objects">
            </g>
            <g transform="matrix(1,0,0,1,-77.801,-304.408)">
                <g transform="matrix(1,0,0,1,256.812,372.379)">
                    <path d="M0,-11.367C-0.633,-11.367 -1.288,-11.307 -1.945,-11.189L-3.535,-10.903L-4.226,-12.363C-5.499,-15.053 -7.939,-16.79 -10.441,-16.79C-14.26,-16.79 -18.541,-14.554 -18.915,-9.644C-19.073,-7.569 -18.211,-5.244 -16.667,-3.575C-15.328,-2.132 -13.644,-1.336 -11.922,-1.336C-11.604,-1.336 -11.256,-1.357 -10.831,-1.403L-9.216,-1.574L-8.637,-0.057C-7.595,2.671 -5.009,5.423 -1.581,5.423C4.327,5.423 7.325,1.398 7.61,-2.341C7.783,-4.595 6.848,-7.12 5.17,-8.93C3.714,-10.501 1.878,-11.367 0,-11.367" style="fill:white;fill-rule:nonzero;"/>
                </g>
                <g transform="matrix(1,0,0,1,264.423,363.352)">
                    <path d="M0,6.686C-0.286,10.425 -3.284,14.45 -9.191,14.45C-12.62,14.45 -15.205,11.698 -16.247,8.97L-16.827,7.454L-18.441,7.624C-18.867,7.67 -19.214,7.691 -19.533,7.691C-21.254,7.691 -22.938,6.895 -24.277,5.452C-25.822,3.783 -26.684,1.458 -26.525,-0.617C-26.151,-5.527 -21.87,-7.763 -18.051,-7.763C-15.549,-7.763 -13.109,-6.025 -11.836,-3.335L-11.145,-1.876L-9.556,-2.162C-8.898,-2.28 -8.244,-2.34 -7.61,-2.34C-5.732,-2.34 -3.896,-1.474 -2.44,0.097C-0.763,1.907 0.172,4.432 0,6.686M0.655,-2.771C-1.609,-5.214 -4.544,-6.56 -7.61,-6.56C-7.995,-6.56 -8.384,-6.544 -8.775,-6.513C-10.896,-9.879 -14.4,-11.983 -18.051,-11.983C-24.912,-11.983 -30.245,-7.337 -30.733,-0.938C-30.981,2.319 -29.725,5.779 -27.372,8.319C-25.229,10.632 -22.451,11.907 -19.546,11.911C-17.42,16.009 -13.422,18.669 -9.191,18.669C-1.944,18.669 3.691,13.765 4.208,7.007C4.47,3.568 3.142,-0.087 0.655,-2.771" style="fill:rgb(56,56,56);fill-rule:nonzero;"/>
                </g>
                <g transform="matrix(1,0,0,1,250.224,404.462)">
                    <path d="M0,-5.799L2.399,-7.31C5.667,-9.369 7.631,-12.639 7.926,-16.518C8.179,-19.827 6.815,-23.523 4.367,-26.164C2.217,-28.486 -0.51,-29.764 -3.311,-29.764L-3.488,-29.76L-5.621,-29.742L-5.615,-31.875C-5.608,-34.318 -6.505,-36.759 -8.079,-38.595L-10.271,-40.508C-11.714,-41.435 -13.25,-41.964 -14.958,-42.122L-17.855,-41.965C-18.335,-41.865 -18.808,-41.731 -19.296,-41.557L-21.535,-40.759L-22.062,-43.076C-23.236,-48.237 -27.81,-53.723 -33.976,-53.723C-38.966,-53.723 -43.503,-51.596 -46.112,-48.032L-48.174,-45.215L-49.709,-48.351C-51.822,-52.669 -55.841,-55.459 -59.949,-55.459C-67.249,-55.459 -72.904,-50.884 -73.703,-44.335L-73.927,-42.492L-75.784,-42.481C-85.474,-42.422 -95.321,-36.547 -102.818,-31.435C-107.36,-28.338 -111.267,-23.991 -113.82,-19.196C-115.386,-16.254 -120.282,-6.033 -117.513,1.981L-116.854,3.887L-118.728,4.632C-122.737,6.224 -125.219,9.527 -125.537,13.691C-125.758,16.597 -124.558,19.844 -122.405,22.167C-120.521,24.201 -118.135,25.321 -115.688,25.321C-115.143,25.321 -114.557,25.28 -113.895,25.195L-110.877,24.809L-111.573,27.77C-111.72,28.393 -111.81,28.94 -111.848,29.444C-112.069,32.342 -111.107,35.259 -109.208,37.468L-106.862,39.515C-105.305,40.517 -103.647,41.089 -101.804,41.257L-98.7,41.088C-97.862,40.916 -97.045,40.648 -96.27,40.294L-94.065,39.285L-93.371,41.608C-92.176,45.609 -88.489,49.66 -83.755,49.66C-79.646,49.66 -75.901,47.911 -73.738,44.981L-72.377,43.139L-68.56,46.472C-66.891,47.548 -65.111,48.148 -63.123,48.308L-62.812,48.357L-59.684,48.187C-57.625,47.765 -55.848,46.886 -54.253,45.5C-52.902,44.308 -51.823,42.758 -51.145,41.024L-49.882,37.801L-47.596,40.4C-47.285,40.753 -46.96,41.084 -46.631,41.383L-46.544,41.466C-45.936,42.084 -45.258,42.645 -44.53,43.134C-42.461,44.511 -39.953,45.271 -37.474,45.271C-36.702,45.271 -35.939,45.196 -35.204,45.05C-33.111,44.633 -30.269,43.487 -29.125,42.183C-28.33,41.271 -27.53,40.354 -26.729,39.437C-26.174,38.577 -25.728,37.667 -25.401,36.729L-24.647,34.569L-22.555,35.496C-21.32,36.042 -20.036,36.319 -18.737,36.319C-10.222,36.319 -5.899,30.485 -5.485,25.065C-5.347,23.254 -5.688,21.318 -6.471,19.469L-7.643,16.698L-3.307,16.468C-1.205,16.039 0.609,15.141 2.235,13.726C4.515,11.717 5.961,8.805 6.195,5.746C6.432,2.635 5.399,-0.497 3.358,-2.869L0,-5.799Z" style="fill:white;fill-rule:nonzero;"/>
                </g>
                <g transform="matrix(1,0,0,1,256.419,392.918)">
                    <path d="M0,17.29C-0.233,20.35 -1.68,23.261 -3.96,25.27C-5.585,26.686 -7.399,27.583 -9.501,28.012L-13.838,28.242L-12.666,31.013C-11.883,32.862 -11.542,34.798 -11.68,36.609C-12.094,42.029 -16.417,47.863 -24.932,47.863C-26.231,47.863 -27.515,47.586 -28.75,47.04L-30.842,46.113L-31.596,48.273C-31.923,49.211 -32.369,50.121 -32.923,50.981C-33.725,51.898 -34.525,52.815 -35.32,53.728C-36.464,55.031 -39.306,56.177 -41.399,56.594C-42.134,56.74 -42.897,56.815 -43.668,56.815C-46.147,56.815 -48.656,56.055 -50.725,54.678C-51.453,54.189 -52.131,53.628 -52.739,53.01L-52.826,52.927C-53.155,52.628 -53.48,52.297 -53.791,51.944L-56.077,49.345L-57.339,52.568C-58.018,54.302 -59.097,55.853 -60.448,57.044C-62.042,58.43 -63.82,59.31 -65.878,59.731L-69.007,59.901L-69.318,59.853C-71.306,59.692 -73.086,59.092 -74.754,58.017L-78.572,54.684L-79.933,56.525C-82.096,59.455 -85.841,61.204 -89.95,61.204C-94.684,61.204 -98.371,57.153 -99.565,53.152L-100.26,50.829L-102.465,51.838C-103.24,52.192 -104.057,52.46 -104.895,52.632L-107.999,52.801C-109.842,52.633 -111.5,52.061 -113.057,51.06L-115.403,49.012C-117.302,46.803 -118.264,43.886 -118.043,40.988C-118.004,40.484 -117.915,39.937 -117.768,39.314L-117.072,36.353L-120.09,36.739C-120.751,36.824 -121.337,36.865 -121.882,36.865C-124.33,36.865 -126.715,35.745 -128.6,33.711C-130.753,31.388 -131.953,28.141 -131.731,25.235C-131.414,21.071 -128.932,17.769 -124.923,16.176L-123.049,15.431L-123.708,13.525C-126.477,5.511 -121.581,-4.71 -120.015,-7.652C-117.462,-12.447 -113.555,-16.794 -109.013,-19.891C-101.516,-25.003 -91.668,-30.878 -81.979,-30.937L-80.122,-30.948L-79.897,-32.791C-79.099,-39.34 -73.444,-43.915 -66.144,-43.915C-62.036,-43.915 -58.017,-41.125 -55.904,-36.807L-54.369,-33.671L-52.307,-36.488C-49.698,-40.052 -45.161,-42.179 -40.171,-42.179C-34.005,-42.179 -29.431,-36.693 -28.257,-31.532L-27.729,-29.215L-25.491,-30.013C-25.002,-30.187 -24.53,-30.321 -24.05,-30.42L-21.152,-30.578C-19.444,-30.42 -17.909,-29.891 -16.466,-28.964L-14.273,-27.051C-12.7,-25.215 -11.803,-22.773 -11.81,-20.331L-11.815,-18.198L-9.683,-18.216L-9.506,-18.22C-6.705,-18.22 -3.978,-16.941 -1.828,-14.62C0.62,-11.979 1.984,-8.283 1.731,-4.974C1.436,-1.095 -0.527,2.175 -3.796,4.234L-6.195,5.745L-2.836,8.675C-0.795,11.047 0.237,14.179 0,17.29M5.939,-4.653C6.283,-9.162 4.537,-13.96 1.268,-17.488C-1.246,-20.202 -4.387,-21.879 -7.722,-22.322C-8.104,-25.142 -9.302,-27.793 -11.193,-29.939L-13.91,-32.335L-14.029,-32.413C-16.122,-33.793 -18.45,-34.594 -20.949,-34.796L-21.09,-34.807L-24.577,-34.618L-24.719,-34.59C-24.732,-34.588 -24.745,-34.585 -24.757,-34.583C-25.777,-37.443 -27.491,-40.065 -29.709,-42.119C-32.689,-44.879 -36.405,-46.399 -40.171,-46.399C-45.37,-46.399 -50.218,-44.528 -53.668,-41.287C-56.701,-45.572 -61.274,-48.134 -66.144,-48.134C-74.98,-48.134 -81.981,-42.857 -83.772,-35.091C-93.979,-34.411 -103.834,-28.53 -111.391,-23.377C-116.486,-19.902 -120.872,-15.022 -123.739,-9.635C-125.86,-5.652 -130.305,4.154 -128.225,13.067C-132.708,15.49 -135.549,19.801 -135.939,24.915C-136.251,29.015 -134.665,33.375 -131.695,36.579C-129.1,39.38 -125.769,40.968 -122.276,41.078C-122.466,45.011 -121.096,48.935 -118.482,51.9L-115.614,54.43L-115.494,54.508C-113.288,55.962 -110.833,56.808 -108.201,57.019L-108.058,57.03L-104.372,56.829L-104.229,56.803C-103.756,56.711 -103.288,56.598 -102.825,56.463C-100.405,61.832 -95.367,65.424 -89.95,65.424C-85.341,65.424 -81.039,63.71 -78.035,60.755L-77.311,61.387L-77.192,61.465C-74.95,62.942 -72.46,63.811 -69.788,64.048L-69.308,64.144L-65.355,63.929L-65.212,63.9C-62.388,63.353 -59.854,62.118 -57.668,60.219C-56.566,59.247 -55.601,58.11 -54.805,56.856C-54.258,57.334 -53.678,57.778 -53.069,58.186C-50.309,60.023 -46.97,61.035 -43.668,61.035C-42.62,61.035 -41.579,60.933 -40.574,60.732C-38.449,60.31 -34.284,58.943 -32.144,56.506C-31.313,55.553 -30.481,54.6 -29.649,53.647L-29.555,53.539L-29.476,53.42C-29.091,52.836 -28.744,52.233 -28.436,51.616C-27.289,51.927 -26.117,52.083 -24.932,52.083C-15.485,52.083 -8.142,45.711 -7.473,36.931C-7.349,35.311 -7.499,33.633 -7.909,31.976C-5.411,31.346 -3.153,30.163 -1.18,28.444C1.928,25.706 3.891,21.757 4.208,17.611C4.521,13.511 3.209,9.386 0.6,6.206C3.737,3.452 5.608,-0.32 5.939,-4.653" style="fill:rgb(56,56,56);fill-rule:nonzero;"/>
                </g>
                <g transform="matrix(1,0,0,1,0,28.94)">
                    <clipPath id="_clip1">
                        <path d="M176.522,331.187L176.296,333.03L174.44,333.042C164.751,333.1 154.903,338.975 147.406,344.087C142.864,347.184 138.957,351.53 136.404,356.327C134.838,359.268 129.942,369.489 132.711,377.504L133.37,379.409L131.496,380.154C127.487,381.746 125.005,385.049 124.688,389.213C124.466,392.119 125.666,395.366 127.819,397.689C129.703,399.723 132.089,400.843 134.536,400.843C135.082,400.843 135.668,400.802 136.329,400.717L139.347,400.331L138.651,403.292C138.505,403.916 138.415,404.462 138.376,404.966C138.155,407.864 139.117,410.781 141.016,412.99L143.362,415.037C144.92,416.04 146.577,416.611 148.421,416.779L151.524,416.609C152.362,416.438 153.179,416.17 153.954,415.816L156.159,414.807L156.854,417.13C158.048,421.131 161.734,425.182 166.468,425.182C170.578,425.182 174.323,423.433 176.486,420.504L177.846,418.661L181.664,421.995C183.333,423.07 185.113,423.671 187.101,423.83L187.412,423.88L190.541,423.71C192.599,423.287 194.377,422.408 195.971,421.022C197.322,419.831 198.4,418.28 199.08,416.546L200.343,413.323L202.629,415.923C202.939,416.275 203.264,416.606 203.593,416.905L203.68,416.987C204.288,417.606 204.966,418.167 205.694,418.656C207.763,420.033 210.271,420.794 212.75,420.794C213.522,420.794 214.285,420.718 215.02,420.572C217.114,420.155 219.955,419.009 221.099,417.706C221.894,416.793 222.694,415.877 223.495,414.96C224.05,414.099 224.496,413.189 224.824,412.252L225.577,410.092L227.669,411.018C228.904,411.564 230.188,411.841 231.487,411.841C240.002,411.841 244.325,406.007 244.739,400.588C244.876,398.776 244.536,396.84 243.753,394.991L242.581,392.22L246.918,391.99C249.019,391.561 250.834,390.663 252.459,389.249C254.739,387.239 256.186,384.327 256.419,381.268C256.657,378.157 255.623,375.025 253.582,372.652L250.224,369.723L252.624,368.212C255.892,366.154 257.855,362.883 258.151,359.004C258.404,355.696 257.039,351.999 254.592,349.358C252.441,347.037 249.714,345.759 246.913,345.759L246.736,345.762L244.604,345.779L244.609,343.647C244.615,341.205 243.719,338.763 242.146,336.927L239.953,335.014C238.511,334.087 236.975,333.558 235.266,333.4L232.368,333.557C231.889,333.657 231.416,333.791 230.927,333.965L228.689,334.763L228.163,332.446C226.989,327.284 222.414,321.799 216.248,321.799C211.258,321.799 206.721,323.927 204.113,327.49L202.05,330.307L200.516,327.171C198.403,322.854 194.383,320.064 190.275,320.064C182.975,320.064 177.32,324.638 176.522,331.187Z" clip-rule="nonzero"/>
                    </clipPath>
                    <g clip-path="url(#_clip1)">
                        <path d="M200.545,356.59L194.116,356.59L194.116,363.023L200.545,363.023L200.545,356.59ZM258.426,388.751L264.863,388.751L264.863,382.317L258.426,382.317L258.426,388.751ZM258.426,427.336L264.863,427.336L264.863,420.902L258.426,420.902L258.426,427.336ZM251.992,375.884L264.863,375.884L264.863,369.451L251.992,369.451L251.992,375.884ZM213.416,395.175L206.974,395.175L206.974,401.608L213.416,401.608L213.416,395.175ZM200.541,414.47L213.42,414.47L213.42,408.033L206.979,408.033L206.979,401.608L200.541,401.608L200.541,414.47ZM251.992,330.871L232.706,330.871L232.706,350.157L251.992,350.157L251.992,330.871ZM258.426,414.47L245.569,414.47L245.569,420.903L258.426,420.903L258.426,414.47ZM187.688,414.47L187.688,408.033L194.112,408.033L194.112,401.608L200.541,401.608L200.541,395.175L206.979,395.175L206.979,382.304L226.269,382.304L226.269,369.434L219.835,369.434L219.835,375.867L213.402,375.867L213.402,350.143L206.969,350.143L206.969,337.272L213.402,337.272L213.402,318L206.969,318L206.969,330.866L200.536,330.866L200.536,318L181.246,318L181.246,330.866L187.679,330.866L187.679,324.433L194.103,324.433L194.103,337.29L200.536,337.29L200.536,356.585L206.969,356.585L206.969,363.018L200.536,363.018L200.536,375.884L194.103,375.884L194.103,363.018L187.679,363.018L187.679,356.59L181.246,356.59L181.246,369.456L187.679,369.456L187.679,375.889L181.246,375.889L181.246,395.189L187.679,395.189L187.679,382.318L194.103,382.318L194.103,395.189L187.679,395.189L187.679,401.622L181.246,401.622L181.246,420.903L194.103,420.903L194.103,414.47L187.688,414.47ZM239.14,414.47L245.582,414.47L245.582,401.608L239.14,401.608L239.14,414.47ZM239.148,414.47L232.702,414.47L232.702,408.033L226.269,408.033L226.269,420.903L206.979,420.903L206.979,427.341L219.854,427.341L219.854,440.211L226.287,440.211L226.287,446.645L232.72,446.645L232.72,433.774L258.439,433.774L258.439,427.341L239.148,427.341L239.148,414.47ZM232.707,395.184L245.582,395.184L245.582,401.618L252.01,401.618L252.01,382.327L245.582,382.327L245.582,369.456L239.14,369.456L239.14,388.751L219.858,388.751L219.858,395.189L226.292,395.189L226.292,401.622L232.725,401.622L232.725,395.189L232.707,395.189L232.707,395.184ZM181.264,343.732L194.121,343.732L194.121,337.29L181.264,337.29L181.264,343.732ZM200.545,427.341L200.545,420.903L194.117,420.903L194.117,427.341L181.259,427.341L181.259,440.211L194.117,440.211L194.117,446.645L200.545,446.645L200.545,433.774L206.983,433.774L206.983,427.341L200.545,427.341ZM219.84,408.033L226.273,408.033L226.273,401.608L219.84,401.608L219.84,408.033ZM136.236,369.456L129.798,369.456L129.798,401.618L136.236,401.618L136.236,369.456ZM136.236,446.631L168.397,446.631L168.397,414.47L136.236,414.47L136.236,446.631ZM129.798,408.033L174.821,408.033L174.821,453.052L129.798,453.052L129.798,408.033ZM258.426,324.437L226.274,324.437L226.274,356.589L258.426,356.589L258.426,324.437ZM264.859,363.023L219.84,363.023L219.84,318.004L264.859,318.004L264.859,363.023ZM161.96,330.871L142.669,330.871L142.669,350.157L161.96,350.157L161.96,330.871ZM206.979,440.199L213.421,440.199L213.421,433.761L206.979,433.761L206.979,440.199ZM142.665,440.199L161.955,440.199L161.955,420.903L142.665,420.903L142.665,440.199ZM168.393,324.437L136.232,324.437L136.232,356.589L168.393,356.589L168.393,324.437ZM174.826,363.018L129.807,363.018L129.807,318.004L174.826,318.004L174.826,363.018ZM155.536,375.884L155.536,369.452L142.665,369.452L142.665,382.318L149.098,382.318L149.098,375.884L155.536,375.884ZM161.96,375.889L181.255,375.889L181.255,369.456L161.96,369.456L161.96,375.889ZM213.416,453.06L219.849,453.06L219.849,440.194L213.416,440.194L213.416,453.06ZM239.14,446.626L232.703,446.626L232.703,453.06L239.14,453.06L239.14,446.626ZM181.264,453.06L194.121,453.06L194.121,446.626L181.264,446.626L181.264,453.06ZM258.426,446.631L264.863,446.631L264.863,440.198L258.426,440.198L258.426,446.631ZM168.393,388.751L174.826,388.751L174.826,382.317L168.393,382.317L168.393,388.751ZM245.577,446.631L252.001,446.631L252.001,440.198L245.577,440.198L245.577,446.631ZM161.96,388.751L168.397,388.751L168.397,395.189L174.831,395.189L174.831,401.622L142.669,401.622L142.669,395.189L149.103,395.189L149.103,382.318L161.973,382.318L161.973,388.751L161.96,388.751Z" style="fill-rule:nonzero;"/>
                    </g>
                </g>
                <g transform="matrix(1,0,0,1,147.61,474.371)">
                    <path d="M0,-26.67C-1.528,-26.67 -2.888,-27.323 -3.965,-28.333C-4.694,-27.825 -5.201,-27.012 -5.261,-26.058L-6.819,-1.542C-6.924,0.118 -5.664,1.552 -4.002,1.657C-3.937,1.661 -3.872,1.663 -3.808,1.663C-2.23,1.663 -0.904,0.435 -0.803,-1.16L0.754,-25.675C0.777,-26.027 0.726,-26.367 0.634,-26.691C0.424,-26.678 0.213,-26.67 0,-26.67" style="fill:rgb(56,56,56);fill-rule:nonzero;"/>
                </g>
                <g transform="matrix(1,0,0,1,157.349,487)">
                    <path d="M0,-36.049C-1.036,-35.6 -1.788,-34.599 -1.817,-33.391L-2.534,-2.941C-2.573,-1.277 -1.255,0 0.409,0L0.481,0C2.112,0 3.454,-1.166 3.492,-2.807L4.176,-31.793C2.268,-32.458 0.772,-34.122 0,-36.049" style="fill:rgb(56,56,56);fill-rule:nonzero;"/>
                </g>
                <g transform="matrix(1,0,0,1,213.355,470.209)">
                    <path d="M0,-19.145C-1.048,-18.777 -2.185,-18.588 -3.362,-18.588C-3.989,-18.588 -4.516,-18.708 -5.078,-18.907C-5.307,-18.481 -5.383,-18.001 -5.383,-17.483L-5.383,-3.015C-5.383,-1.351 -4.116,0 -2.452,0C-0.785,0 0.48,-1.351 0.48,-3.015L0.48,-17.483C0.48,-18.097 0.315,-18.668 0,-19.145" style="fill:rgb(56,56,56);fill-rule:nonzero;"/>
                </g>
                <g transform="matrix(1,0,0,1,227.242,451.222)">
                    <path d="M0,26.605L-2.157,-2.039C-2.19,-2.477 -2.32,-2.883 -2.518,-3.245C-3.945,-1.861 -5.96,-0.518 -8.123,-0.41L-6.01,27.068C-5.889,28.648 -4.568,29.85 -3.009,29.85C-2.93,29.85 -2.852,29.849 -2.773,29.842C-1.114,29.714 0.128,28.264 0,26.605" style="fill:rgb(56,56,56);fill-rule:nonzero;"/>
                </g>
                <g transform="matrix(1,0,0,1,185.088,367.218)">
                    <path d="M0,0.129C-6.71,-16.904 -11.447,-32.26 -42.216,-40.007C-59.889,-44.457 -75.367,-40.221 -87.066,-33.339C-98.766,-26.456 -112.334,-15.401 -105.024,-3.611C-101.502,2.07 -95.233,1.834 -88.758,-0.694C-91.783,9.496 -91.586,20.979 -86.55,30.112C-83.396,35.835 -78.107,40.228 -71.857,42.207C-65.593,44.189 -57.44,44.586 -52.482,42.844C-40.727,38.714 -35.365,32.842 -29.444,23.476C-27.717,20.742 -26.348,17.828 -25.251,14.81C-21.609,23.382 -16.684,30.792 -10.414,31.488C5.071,33.209 4.705,12.071 0,0.129" style="fill:rgb(56,56,56);fill-rule:nonzero;"/>
                </g>
                <g transform="matrix(-0.997174,-0.075129,-0.075129,0.997174,110.947,371.927)">
                    <path d="M-1.024,-27.235C6.387,-26.676 12.604,-21.437 12.613,-13.597C12.618,-6.591 6.384,0.597 -1.024,0.039C-8.436,-0.52 -14.654,-5.759 -14.662,-13.599C-14.667,-20.604 -8.433,-27.793 -1.024,-27.235" style="fill:white;fill-rule:nonzero;"/>
                </g>
                <g transform="matrix(1,0,0,1,111.588,364.668)">
                    <path d="M0,-9.525C-2.933,-9.525 -5.536,-7.648 -5.771,-4.562C-5.808,-4.084 -5.766,-3.6 -5.665,-3.124C-4.587,-4.006 -3.132,-4.445 -1.602,-4.445C0.768,-4.445 2.562,-2.229 2.934,0C4.063,-0.857 4.84,-2.137 4.963,-3.754C5.173,-6.511 2.932,-9.525 0,-9.525" style="fill:rgb(56,56,56);fill-rule:nonzero;"/>
                </g>
                <g transform="matrix(-0.997173,-0.0751364,-0.0751364,0.997173,142.848,381.372)">
                    <path d="M-1.075,-28.587C6.704,-28.001 13.231,-22.502 13.238,-14.273C13.245,-6.919 6.7,0.626 -1.075,0.04C-8.855,-0.546 -15.383,-6.045 -15.389,-14.274C-15.396,-21.628 -8.851,-29.173 -1.075,-28.587" style="fill:white;fill-rule:nonzero;"/>
                </g>
                <g transform="matrix(1,0,0,1,144.949,372.407)">
                    <path d="M0,-9.774C-3.452,-9.278 -6.197,-6.628 -5.953,-2.958C-5.919,-2.463 -5.813,-1.973 -5.656,-1.497C-4.521,-2.921 -2.731,-3.805 -0.75,-4.09C2.104,-4.5 4.645,-2.127 5.46,0.496C6.398,-0.652 6.929,-2.126 6.815,-3.821C6.597,-7.102 3.451,-10.27 0,-9.774" style="fill:rgb(56,56,56);fill-rule:nonzero;"/>
                </g>
                <g transform="matrix(1,0,0,1,134.585,344.466)">
                    <path d="M0,-27.246C-1.207,-27.246 -2.361,-27.175 -3.43,-27.035C-7.262,-26.532 -12.785,-24.859 -15.737,-21.797C-16.733,-20.763 -17.953,-19.121 -18.102,-17.17C-18.234,-15.433 -17.664,-13.683 -16.535,-12.35L-15.044,-11.049C-14.125,-10.466 -13.149,-10.13 -12.067,-10.023L-10.022,-10.152L-7.896,-10.62L-7.495,-8.479C-6.89,-5.249 -4.106,-1.909 -0.494,-1.909C2.372,-1.909 5.012,-3.097 6.568,-5.087L8.649,-7.748L10.127,-4.711C11.101,-2.713 12.846,-1.159 14.917,-0.445C15.775,-0.15 16.677,0 17.599,0C19.655,0 21.624,-0.736 23.141,-2.073C24.326,-3.127 25.093,-4.262 25.48,-5.536C27.065,-10.756 24.175,-16.16 20.942,-19.476C15.357,-25.205 6.462,-27.246 0,-27.246" style="fill:white;fill-rule:nonzero;"/>
                </g>
                <g transform="matrix(1,0,0,1,160.065,322.92)">
                    <path d="M0,16.01C-0.387,17.283 -1.154,18.418 -2.339,19.472C-3.856,20.809 -5.825,21.546 -7.881,21.546C-8.803,21.546 -9.705,21.396 -10.563,21.1C-12.634,20.387 -14.379,18.832 -15.353,16.834L-16.831,13.798L-18.912,16.458C-20.468,18.448 -23.108,19.637 -25.974,19.637C-29.586,19.637 -32.37,16.296 -32.975,13.066L-33.375,10.926L-35.502,11.394L-37.547,11.522C-38.629,11.415 -39.605,11.079 -40.524,10.497L-42.015,9.196C-43.144,7.862 -43.714,6.113 -43.582,4.375C-43.433,2.424 -42.213,0.782 -41.217,-0.251C-38.265,-3.313 -32.742,-4.987 -28.91,-5.489C-27.841,-5.629 -26.687,-5.7 -25.48,-5.7C-19.018,-5.7 -10.123,-3.659 -4.538,2.07C-1.305,5.386 1.585,10.79 0,16.01M-1.517,-0.876C-8.018,-7.544 -18.158,-9.92 -25.48,-9.92C-26.87,-9.92 -28.208,-9.837 -29.458,-9.673C-34.182,-9.054 -40.55,-7.023 -44.255,-3.18C-46.374,-0.982 -47.595,1.519 -47.789,4.054C-48.011,6.963 -47.03,9.889 -45.096,12.083L-43.078,13.87L-42.958,13.949C-41.383,14.987 -39.632,15.591 -37.752,15.743L-37.61,15.757L-36.63,15.708C-34.978,20.469 -30.671,23.877 -25.974,23.877C-22.808,23.877 -19.884,22.911 -17.615,21.129C-16.136,22.958 -14.162,24.406 -11.937,25.172C-10.636,25.62 -9.271,25.93 -7.882,25.93L-7.881,25.93C-4.797,25.93 -1.838,24.737 0.458,22.714C2.223,21.144 3.427,19.247 4.038,17.236C6.157,10.257 2.558,3.303 -1.517,-0.876" style="fill:rgb(56,56,56);fill-rule:nonzero;"/>
                </g>
                <g opacity="0.8">
                    <g transform="matrix(-0.875389,-0.483418,-0.483418,0.875389,120.09,403.775)">
                        <path d="M0.115,-1.811C0.293,-1.013 0.61,-0.259 0.81,0.534C0.921,0.973 0.403,1.245 0.115,0.901C-0.448,0.228 -0.894,-0.505 -1.246,-1.313C-1.624,-2.18 -0.086,-2.716 0.115,-1.811" style="fill:white;fill-rule:nonzero;"/>
                    </g>
                    <g transform="matrix(0.879916,-0.47513,-0.47513,-0.879916,112.913,400.473)">
                        <path d="M-0.426,-0.174C-0.414,0.612 -0.265,1.318 -0.009,2.062C0.082,2.324 -0.27,2.459 -0.426,2.257C-1.014,1.492 -1.466,0.738 -1.327,-0.261C-1.257,-0.779 -0.433,-0.684 -0.426,-0.174" style="fill:white;fill-rule:nonzero;"/>
                    </g>
                </g>
            </g>
        </g>
    </g>
</svg>
